<?xml version="1.0" encoding="UTF-8" standalone="no"?>
<!DOCTYPE svg PUBLIC "-//W3C//DTD SVG 1.1//EN"
 "http://www.w3.org/Graphics/SVG/1.1/DTD/svg11.dtd">
<!-- Generated by graphviz version 2.47.0 (20210316.0004)
 -->
<!-- Title: dependencies Pages: 1 -->
<svg width="504pt" height="284pt"
 viewBox="0.00 0.00 504.00 284.00" xmlns="http://www.w3.org/2000/svg" xmlns:xlink="http://www.w3.org/1999/xlink">
<g id="graph0" class="graph" transform="scale(1 1) rotate(0) translate(4 280)">
<title>dependencies</title>
<polygon fill="white" stroke="transparent" points="-4,4 -4,-280 500,-280 500,4 -4,4"/>
<text text-anchor="start" x="227.01" y="-42.4" font-family="Times-12" font-weight="bold" font-size="14.00">Legend</text>
<polygon fill="#ffffb3" stroke="transparent" points="14,-10 14,-30 34,-30 34,-10 14,-10"/>
<text text-anchor="start" x="37.63" y="-15.4" font-family="Times-12" font-size="14.00"> &#160;Declarations</text>
<polygon fill="#8dd3c7" stroke="transparent" points="127,-10 127,-30 147,-30 147,-10 127,-10"/>
<text text-anchor="start" x="150.73" y="-15.4" font-family="Times-12" font-size="14.00"> &#160;Module</text>
<polygon fill="#80b1d3" stroke="transparent" points="213,-10 213,-30 233,-30 233,-10 213,-10"/>
<text text-anchor="start" x="236.78" y="-15.4" font-family="Times-12" font-size="14.00"> &#160;Bootstrap</text>
<polygon fill="#fdb462" stroke="transparent" points="310,-10 310,-30 330,-30 330,-10 310,-10"/>
<text text-anchor="start" x="333.67" y="-15.4" font-family="Times-12" font-size="14.00"> &#160;Providers</text>
<polygon fill="#fb8072" stroke="transparent" points="406,-10 406,-30 426,-30 426,-10 406,-10"/>
<text text-anchor="start" x="429.73" y="-15.4" font-family="Times-12" font-size="14.00"> &#160;Exports</text>
<g id="clust1" class="cluster">
<title>cluster_SharedModule</title>
<polygon fill="none" stroke="black" stroke-dasharray="1,5" points="119.5,-70 119.5,-268 376.5,-268 376.5,-70 119.5,-70"/>
</g>
<g id="clust3" class="cluster">
<title>cluster_SharedModule_imports</title>
<polygon fill="none" stroke="black" points="131.5,-78 131.5,-130 365.5,-130 365.5,-78 131.5,-78"/>
</g>
<g id="clust4" class="cluster">
<title>cluster_SharedModule_exports</title>
<polygon fill="none" stroke="black" points="127.5,-208 127.5,-260 368.5,-260 368.5,-208 127.5,-208"/>
</g>
<!-- MatFormField -->
<g id="node1" class="node">
<title>MatFormField</title>
<polygon fill="#8dd3c7" stroke="black" points="357.16,-122 354.16,-126 333.16,-126 330.16,-122 259.84,-122 259.84,-86 357.16,-86 357.16,-122"/>
<text text-anchor="middle" x="308.5" y="-99.8" font-family="Times,serif" font-size="14.00">MatFormField</text>
</g>
<!-- SharedModule -->
<g id="node3" class="node">
<title>SharedModule</title>
<polygon fill="#8dd3c7" stroke="black" points="240.92,-187 237.92,-191 216.92,-191 213.92,-187 142.08,-187 142.08,-151 240.92,-151 240.92,-187"/>
<text text-anchor="middle" x="191.5" y="-164.8" font-family="Times,serif" font-size="14.00">SharedModule</text>
</g>
<!-- MatFormField&#45;&gt;SharedModule -->
<g id="edge1" class="edge">
<title>MatFormField&#45;&gt;SharedModule</title>
<path fill="none" stroke="black" d="M324.78,-122.02C324.78,-139.37 324.78,-163 324.78,-163 324.78,-163 250.75,-163 250.75,-163"/>
<polygon fill="black" stroke="black" points="250.75,-159.5 240.75,-163 250.75,-166.5 250.75,-159.5"/>
</g>
<!-- MatIconButton -->
<g id="node2" class="node">
<title>MatIconButton</title>
<polygon fill="#8dd3c7" stroke="black" points="241.04,-122 238.04,-126 217.04,-126 214.04,-122 139.96,-122 139.96,-86 241.04,-86 241.04,-122"/>
<text text-anchor="middle" x="190.5" y="-99.8" font-family="Times,serif" font-size="14.00">MatIconButton</text>
</g>
<!-- MatIconButton&#45;&gt;SharedModule -->
<g id="edge2" class="edge">
<title>MatIconButton&#45;&gt;SharedModule</title>
<path fill="none" stroke="black" d="M191.5,-122.11C191.5,-122.11 191.5,-140.99 191.5,-140.99"/>
<polygon fill="black" stroke="black" points="188,-140.99 191.5,-150.99 195,-140.99 188,-140.99"/>
</g>
<!-- MatFormField  -->
<g id="node4" class="node">
<title>MatFormField </title>
<polygon fill="#fb8072" stroke="black" points="360.16,-252 258.84,-252 258.84,-216 360.16,-216 360.16,-252"/>
<text text-anchor="middle" x="309.5" y="-229.8" font-family="Times,serif" font-size="14.00">MatFormField </text>
</g>
<!-- SharedModule&#45;&gt;MatFormField  -->
<g id="edge3" class="edge">
<title>SharedModule&#45;&gt;MatFormField </title>
<path fill="none" stroke="black" stroke-dasharray="5,2" d="M240.98,-175C266.45,-175 292.22,-175 292.22,-175 292.22,-175 292.22,-205.98 292.22,-205.98"/>
<polygon fill="black" stroke="black" points="288.72,-205.98 292.22,-215.98 295.72,-205.98 288.72,-205.98"/>
</g>
<!-- MatIconButton  -->
<g id="node5" class="node">
<title>MatIconButton </title>
<polygon fill="#fb8072" stroke="black" points="241.04,-252 135.96,-252 135.96,-216 241.04,-216 241.04,-252"/>
<text text-anchor="middle" x="188.5" y="-229.8" font-family="Times,serif" font-size="14.00">MatIconButton </text>
</g>
<!-- SharedModule&#45;&gt;MatIconButton  -->
<g id="edge4" class="edge">
<title>SharedModule&#45;&gt;MatIconButton </title>
<path fill="none" stroke="black" stroke-dasharray="5,2" d="M191.5,-187.11C191.5,-187.11 191.5,-205.99 191.5,-205.99"/>
<polygon fill="black" stroke="black" points="188,-205.99 191.5,-215.99 195,-205.99 188,-205.99"/>
</g>
</g>
</svg>
